<svg width="12" height="12" viewBox="0 0 12 12" fill="none" xmlns="http://www.w3.org/2000/svg">
<g id="&#240;&#159;&#166;&#134; icon &#34;ban&#34;">
<path id="Vector" d="M6 0C2.68631 0 0 2.68628 0 6C0 9.31372 2.68631 12 6 12C9.31369 12 12 9.31369 12 6C12 2.68631 9.31372 0 6 0ZM9.14777 2.85223C10.7312 4.43565 10.8413 6.8558 9.64802 8.55312L3.44685 2.352C5.14534 1.1579 7.56523 1.2697 9.14777 2.85223ZM2.85223 9.14777C1.26881 7.56435 1.15868 5.1442 2.35198 3.44688L8.55314 9.648C6.85469 10.8421 4.43477 10.7303 2.85223 9.14777Z" fill="white"/>
</g>
</svg>
