<svg width="24" height="21" viewBox="0 0 24 21" fill="none" xmlns="http://www.w3.org/2000/svg">
<g id="Group 1">
<g id="icon/profile">
<g id="g3">
<path id="path2" opacity="0.988636" d="M11.7835 7.6637C14.7346 7.66106 21.3701 13.9003 18.2618 17.6471C15.1535 21.3939 8.83466 17.9457 9.429 14.4022C10.0233 10.8587 13.7798 11.0823 14.3502 14.4111C14.9207 17.7399 8.14435 21.9741 5.23094 17.3055C2.31753 12.6368 8.85886 7.6663 11.7835 7.6637Z" stroke="white" stroke-width="1.5"/>
<path id="path2-1-0" opacity="0.988636" d="M21.94 7.99342C23.278 5.80236 21.0957 4.32827 19.2146 5.90686C18.4111 6.58116 18.2724 7.92696 18.6738 9.14499C19.9005 9.2434 21.3807 8.90924 21.94 7.99342Z" stroke="white" stroke-width="1.5"/>
<path id="path2-1-0-1" opacity="0.988636" d="M1.41281 8.14482C0.0748169 5.95376 2.2571 4.47966 4.13821 6.05826C4.94174 6.73256 5.08045 8.07836 4.67899 9.29638C3.45232 9.39479 1.97207 9.06064 1.41281 8.14482Z" stroke="white" stroke-width="1.5"/>
<path id="path2-1-5" opacity="0.988636" d="M6.13258 3.93507C5.68469 1.43779 8.27145 0.781448 9.45343 2.88527C9.95833 3.78394 9.59339 5.09094 8.76933 6.09883C7.58381 5.78362 6.31979 4.9789 6.13258 3.93507Z" stroke="white" stroke-width="1.5"/>
<path id="path2-1-0-7" opacity="0.988636" d="M17.2067 3.93507C17.6546 1.43779 15.0678 0.781448 13.8858 2.88527C13.3809 3.78394 13.7459 5.09094 14.5699 6.09883C15.7554 5.78362 17.0195 4.9789 17.2067 3.93507Z" stroke="white" stroke-width="1.5"/>
</g>
</g>
</g>
</svg>
