<svg width="20" height="20" viewBox="0 0 20 20" fill="none" xmlns="http://www.w3.org/2000/svg">
<g id="Icon / Image">
<path id="Vector" d="M3.33331 13.3333L7.15498 9.51158C7.46753 9.19913 7.89137 9.02361 8.33331 9.02361C8.77525 9.02361 9.1991 9.19913 9.51165 9.51158L13.3333 13.3333M11.6666 11.6666L12.9883 10.3449C13.3009 10.0325 13.7247 9.85694 14.1666 9.85694C14.6086 9.85694 15.0324 10.0325 15.345 10.3449L16.6666 11.6666M11.6666 6.66659H11.675M4.99998 16.6666H15C15.442 16.6666 15.8659 16.491 16.1785 16.1784C16.4911 15.8659 16.6666 15.4419 16.6666 14.9999V4.99992C16.6666 4.55789 16.4911 4.13397 16.1785 3.82141C15.8659 3.50885 15.442 3.33325 15 3.33325H4.99998C4.55795 3.33325 4.13403 3.50885 3.82147 3.82141C3.50891 4.13397 3.33331 4.55789 3.33331 4.99992V14.9999C3.33331 15.4419 3.50891 15.8659 3.82147 16.1784C4.13403 16.491 4.55795 16.6666 4.99998 16.6666Z" stroke="white" stroke-width="1.4" stroke-linecap="round" stroke-linejoin="round"/>
</g>
</svg>
