<svg width="15" height="17" viewBox="0 0 15 17" fill="none" xmlns="http://www.w3.org/2000/svg">
<g id="&#240;&#159;&#166;&#134; icon &#34;megafone&#34;">
<path id="Vector" d="M13.8725 5.76L13.3392 5.33333V1.06667C13.3392 0.426667 12.9125 0 12.2725 0C11.6325 0 11.2058 0.426667 11.2058 1.06667V1.6C9.0725 2.56 8.53324 4.5 5.33324 4.5H2.66657C1.17324 4.5 -9.72748e-05 5.78 -9.72748e-05 7.16667C-9.72748e-05 8.12667 0.533236 8.98 1.2799 9.40667L1.17324 15.6933C1.17324 16.0133 1.49324 16.2267 1.9199 16.2267H2.13324L4.99818 16.2316C5.55114 16.2326 5.9999 15.7846 5.9999 15.2316V14.7333V13.2333C5.9999 13.2333 5.97324 11.86 5.7599 10.9L5.9999 10.2333L6.3999 9.94C9.2799 10.26 10.1392 11.4133 11.2058 12.2667V12.8C11.2058 13.44 11.6325 13.8667 12.2725 13.8667C12.9125 13.8667 13.3392 13.44 13.3392 12.8V8.53333L13.7658 8.21333C14.1925 7.89333 14.4058 7.46667 14.4058 7.04V6.82667C14.4058 6.4 14.1925 6.08 13.8725 5.76ZM4.9999 13.7333C4.9999 13.7333 4.9999 14.2333 4.9999 14.7333C4.9999 15.2104 2.2399 15.16 2.2399 15.16L2.45324 9.83333H4.4799C4.69324 11.22 4.9999 13.7333 4.9999 13.7333ZM11.2058 10.9867C9.49917 10.1333 9.17323 9.08667 6.3999 8.76667V5.56667C9.17323 5.24667 9.49917 3.84 11.2058 2.88V10.9867Z" fill="white"/>
</g>
</svg>
