<svg width="17" height="16" viewBox="0 0 17 16" fill="none" xmlns="http://www.w3.org/2000/svg">
<g id="&#240;&#159;&#166;&#134; icon &#34;video&#34;">
<g id="Group">
<path id="Vector" d="M8.91386 15.259H3.94078C1.0323 15.259 0 13.2189 0 11.3182V4.68199C0 1.84725 1.10604 0.741211 3.94078 0.741211H8.91386C11.7486 0.741211 12.8546 1.84725 12.8546 4.68199V11.3182C12.8546 14.1529 11.7486 15.259 8.91386 15.259ZM3.94078 1.98653C1.80244 1.98653 1.24532 2.54365 1.24532 4.68199V11.3182C1.24532 12.3259 1.59761 14.0137 3.94078 14.0137H8.91386C11.0522 14.0137 11.6093 13.4565 11.6093 11.3182V4.68199C11.6093 2.54365 11.0522 1.98653 8.91386 1.98653H3.94078Z" fill="#ECEBED"/>
<path id="Vector_2" d="M15.3861 13.0059C15.0338 13.0059 14.5832 12.8912 14.067 12.5307L11.8795 10.9986C11.7157 10.8839 11.6174 10.6955 11.6174 10.4907V5.50938C11.6174 5.30455 11.7157 5.11613 11.8795 5.00142L14.067 3.46935C15.042 2.78934 15.7548 2.98597 16.0907 3.15802C16.4266 3.33826 17.0001 3.80526 17.0001 4.99323V10.9986C17.0001 12.1866 16.4266 12.6618 16.0907 12.8338C15.935 12.924 15.6892 13.0059 15.3861 13.0059ZM12.8545 10.1629L14.7798 11.5066C15.1485 11.7606 15.4107 11.7851 15.5172 11.7278C15.6319 11.6704 15.7548 11.441 15.7548 10.9986V5.00142C15.7548 4.55081 15.6237 4.3296 15.5172 4.27225C15.4107 4.2149 15.1485 4.23948 14.7798 4.49346L12.8545 5.83709V10.1629Z" fill="#ECEBED"/>
<path id="Vector_3" d="M7.7831 7.79544C6.76718 7.79544 5.9397 6.96796 5.9397 5.95204C5.9397 4.93612 6.76718 4.10864 7.7831 4.10864C8.79902 4.10864 9.6265 4.93612 9.6265 5.95204C9.6265 6.96796 8.79902 7.79544 7.7831 7.79544ZM7.7831 5.33758C7.44719 5.33758 7.16863 5.61613 7.16863 5.95204C7.16863 6.28795 7.44719 6.56651 7.7831 6.56651C8.11901 6.56651 8.39756 6.28795 8.39756 5.95204C8.39756 5.61613 8.11901 5.33758 7.7831 5.33758Z" fill="#ECEBED"/>
</g>
</g>
</svg>
