<svg width="23" height="21" viewBox="0 0 23 21" fill="none" xmlns="http://www.w3.org/2000/svg">
<g id="&#240;&#159;&#166;&#134; icon &#34;exclamation-triangle&#34;">
<path id="Vector" d="M11.474 14.6223C11.2684 14.6223 11.0675 14.6833 10.8966 14.7975C10.7256 14.9117 10.5924 15.074 10.5138 15.2639C10.4351 15.4538 10.4145 15.6628 10.4546 15.8644C10.4947 16.0661 10.5937 16.2513 10.7391 16.3966C10.8844 16.542 11.0696 16.641 11.2712 16.6811C11.4728 16.7212 11.6818 16.7006 11.8717 16.6219C12.0617 16.5432 12.224 16.41 12.3382 16.2391C12.4524 16.0682 12.5133 15.8672 12.5133 15.6617C12.5133 15.386 12.4038 15.1217 12.2089 14.9267C12.014 14.7318 11.7496 14.6223 11.474 14.6223ZM22.5639 16.1502L14.1971 1.59919C13.9267 1.11434 13.5317 0.710492 13.053 0.429358C12.5743 0.148223 12.0292 0 11.474 0C10.9188 0 10.3737 0.148223 9.89501 0.429358C9.41629 0.710492 9.02131 1.11434 8.75088 1.59919L0.436029 16.1502C0.15623 16.6221 0.00588369 17.1594 0.000169208 17.708C-0.00554527 18.2566 0.133574 18.7969 0.403482 19.2745C0.673391 19.7521 1.06453 20.1501 1.53742 20.4282C2.0103 20.7063 2.54819 20.8547 3.09678 20.8585H19.8512C20.4042 20.8639 20.9487 20.7222 21.4289 20.4478C21.909 20.1735 22.3076 19.7763 22.5837 19.2972C22.8597 18.818 23.0034 18.274 22.9999 17.721C22.9965 17.168 22.846 16.6258 22.5639 16.1502ZM20.7658 18.2289C20.6747 18.391 20.5418 18.5257 20.3809 18.6189C20.2201 18.7121 20.0371 18.7605 19.8512 18.759H3.09678C2.91085 18.7605 2.72791 18.7121 2.56704 18.6189C2.40617 18.5257 2.27325 18.391 2.18215 18.2289C2.09092 18.0709 2.0429 17.8917 2.0429 17.7092C2.0429 17.5268 2.09092 17.3475 2.18215 17.1895L10.497 2.63854C10.5842 2.46829 10.7167 2.32542 10.8799 2.22565C11.0432 2.12588 11.2307 2.07309 11.422 2.07309C11.6133 2.07309 11.8009 2.12588 11.9641 2.22565C12.1273 2.32542 12.2598 2.46829 12.3471 2.63854L20.7139 17.1895C20.817 17.3453 20.8762 17.5259 20.8854 17.7125C20.8945 17.899 20.8532 18.0846 20.7658 18.2497V18.2289ZM11.474 6.30747C11.1983 6.30747 10.934 6.41697 10.7391 6.61189C10.5441 6.80681 10.4346 7.07117 10.4346 7.34683V11.5043C10.4346 11.7799 10.5441 12.0443 10.7391 12.2392C10.934 12.4341 11.1983 12.5436 11.474 12.5436C11.7496 12.5436 12.014 12.4341 12.2089 12.2392C12.4038 12.0443 12.5133 11.7799 12.5133 11.5043V7.34683C12.5133 7.07117 12.4038 6.80681 12.2089 6.61189C12.014 6.41697 11.7496 6.30747 11.474 6.30747Z" fill="#727477"/>
</g>
</svg>
