<svg width="25" height="25" viewBox="0 0 25 25" fill="none" xmlns="http://www.w3.org/2000/svg">
<g id="home 2">
<g id="layer1">
<g id="path1-1" opacity="0.988636">
<path d="M2.66602 12.2571L11.9142 2.9267Z" fill="white"/>
<path d="M2.66602 12.2571L11.9142 2.9267" stroke="#ECEBED" stroke-width="2" stroke-linecap="round" stroke-linejoin="round"/>
</g>
<g id="path1-1-5" opacity="0.988636">
<path d="M12.6465 2.9267L21.8947 12.2571Z" fill="white"/>
<path d="M12.6465 2.9267L21.8947 12.2571" stroke="#ECEBED" stroke-width="2" stroke-linecap="round" stroke-linejoin="round"/>
</g>
<g id="path1" opacity="0.988636">
<path d="M5.25476 21.0938L5.20898 11.8309Z" fill="white"/>
<path d="M5.25476 21.0938L5.20898 11.8309" stroke="#ECEBED" stroke-width="2" stroke-linecap="round" stroke-linejoin="round"/>
</g>
<g id="path1-9" opacity="0.988636">
<path d="M19.5962 21.0938L5.20898 21.048Z" fill="white"/>
<path d="M19.5962 21.0938L5.20898 21.048" stroke="#ECEBED" stroke-width="2" stroke-linecap="round" stroke-linejoin="round"/>
</g>
<g id="path1-8" opacity="0.988636">
<path d="M19.5961 21.0938L19.5503 11.8309Z" fill="white"/>
<path d="M19.5961 21.0938L19.5503 11.8309" stroke="#ECEBED" stroke-width="2" stroke-linecap="round" stroke-linejoin="round"/>
</g>
<path id="path2-9-5" opacity="0.988636" d="M12.403 17.195C10.899 17.1963 7.51701 14.1257 9.10122 12.2817C10.6854 10.4378 12.803 12.6925 12.5001 14.4364C12.1972 16.1803 12.2355 16.389 11.9447 14.7508C11.654 13.1125 14.2578 10.1522 15.7427 12.4499C17.2276 14.7475 13.8937 17.1937 12.403 17.195Z" fill="#ECEBED" stroke="#ECEBED"/>
</g>
</g>
</svg>
