<svg width="20" height="21" viewBox="0 0 20 21" fill="none" xmlns="http://www.w3.org/2000/svg">
<g id="search">
<path id="Vector" fill-rule="evenodd" clip-rule="evenodd" d="M8 4.49997C6.93913 4.49997 5.92172 4.9214 5.17157 5.67155C4.42143 6.42169 4 7.43911 4 8.49997C4 9.56084 4.42143 10.5783 5.17157 11.3284C5.92172 12.0785 6.93913 12.5 8 12.5C9.06086 12.5 10.0783 12.0785 10.8284 11.3284C11.5786 10.5783 12 9.56084 12 8.49997C12 7.43911 11.5786 6.42169 10.8284 5.67155C10.0783 4.9214 9.06086 4.49997 8 4.49997ZM2 8.49997C1.99988 7.55568 2.22264 6.62468 2.65017 5.78271C3.0777 4.94074 3.69792 4.21157 4.4604 3.6545C5.22287 3.09743 6.10606 2.72819 7.03815 2.57681C7.97023 2.42543 8.92488 2.49618 9.82446 2.78332C10.724 3.07046 11.5432 3.56587 12.2152 4.22927C12.8872 4.89266 13.3931 5.70531 13.6919 6.60111C13.9906 7.4969 14.0737 8.45056 13.9343 9.38452C13.795 10.3185 13.4372 11.2064 12.89 11.976L17.707 16.793C17.8892 16.9816 17.99 17.2342 17.9877 17.4964C17.9854 17.7586 17.8802 18.0094 17.6948 18.1948C17.5094 18.3802 17.2586 18.4854 16.9964 18.4876C16.7342 18.4899 16.4816 18.3891 16.293 18.207L11.477 13.391C10.5794 14.0293 9.52335 14.4081 8.42467 14.4861C7.326 14.5641 6.22707 14.3381 5.2483 13.8329C4.26953 13.3278 3.44869 12.563 2.87572 11.6223C2.30276 10.6816 1.99979 9.60141 2 8.49997Z" fill="white"/>
</g>
</svg>
