<svg width="36" height="36" viewBox="0 0 38 32" fill="none" xmlns="http://www.w3.org/2000/svg">
<path opacity="0.988636" d="M19.1806 11.179C24.1559 11.1745 35.3431 21.6936 30.1027 28.0105C24.8622 34.3274 14.2089 28.5139 15.2109 22.5398C16.213 16.5656 22.5461 16.9425 23.5079 22.5547C24.4697 28.1669 13.0451 35.3057 8.13322 27.4345C3.22134 19.5634 14.2497 11.1833 19.1806 11.179Z" stroke="#ECEBED" stroke-width="2"/>
<path opacity="0.988636" d="M36.3039 11.7348C38.5597 8.04082 34.8805 5.55556 31.709 8.21699C30.3543 9.35384 30.1205 11.6228 30.7973 13.6763C32.8654 13.8422 35.3611 13.2789 36.3039 11.7348Z" stroke="#ECEBED" stroke-width="2"/>
<path opacity="0.988636" d="M1.69598 11.9902C-0.559817 8.29619 3.11941 5.81093 6.29087 8.47236C7.64559 9.60921 7.87946 11.8782 7.20262 13.9317C5.1345 14.0976 2.63887 13.5343 1.69598 11.9902Z" stroke="#ECEBED" stroke-width="2"/>
<path opacity="0.988636" d="M9.65327 4.89272C8.89816 0.68242 13.2593 -0.424145 15.2521 3.12281C16.1033 4.63792 15.488 6.84147 14.0987 8.54072C12.1 8.00928 9.9689 6.65257 9.65327 4.89272Z" stroke="#ECEBED" stroke-width="2"/>
<path opacity="0.988636" d="M28.3238 4.89272C29.0789 0.68242 24.7177 -0.424145 22.725 3.12281C21.8737 4.63792 22.489 6.84147 23.8783 8.54072C25.8771 8.00928 28.0082 6.65257 28.3238 4.89272Z" stroke="#ECEBED" stroke-width="2"/>
</svg>
