<svg width="36" height="36" viewBox="0 0 34 34" fill="none" xmlns="http://www.w3.org/2000/svg">
<g opacity="0.988636">
<path d="M3.62549 16.6697L16.2031 3.98035L3.62549 16.6697Z" fill="#ECEBED"/>
<path d="M3.62549 16.6697L16.2031 3.98035" stroke="#ECEBED" stroke-width="2" stroke-linecap="round" stroke-linejoin="round"/>
</g>
<g opacity="0.988636">
<path d="M17.1992 3.98035L29.7768 16.6697L17.1992 3.98035Z" fill="#ECEBED"/>
<path d="M17.1992 3.98035L29.7768 16.6697" stroke="#ECEBED" stroke-width="2" stroke-linecap="round" stroke-linejoin="round"/>
</g>
<g opacity="0.988636">
<path d="M7.14624 28.6875L7.08398 16.09L7.14624 28.6875Z" fill="#ECEBED"/>
<path d="M7.14624 28.6875L7.08398 16.09" stroke="#ECEBED" stroke-width="2" stroke-linecap="round" stroke-linejoin="round"/>
</g>
<g opacity="0.988636">
<path d="M26.6506 28.6876L7.08398 28.6254L26.6506 28.6876Z" fill="#ECEBED"/>
<path d="M26.6506 28.6876L7.08398 28.6254" stroke="#ECEBED" stroke-width="2" stroke-linecap="round" stroke-linejoin="round"/>
</g>
<g opacity="0.988636">
<path d="M26.6506 28.6875L26.5884 16.09L26.6506 28.6875Z" fill="#ECEBED"/>
<path d="M26.6506 28.6875L26.5884 16.09" stroke="#ECEBED" stroke-width="2" stroke-linecap="round" stroke-linejoin="round"/>
</g>
<path opacity="0.988636" d="M16.8677 23.3852C14.8222 23.387 10.2227 19.2109 12.3772 16.7032C14.5318 14.1955 17.4117 17.2619 16.9998 19.6336C16.5878 22.0053 16.6399 22.2891 16.2444 20.0611C15.849 17.8331 19.3902 13.8071 21.4097 16.9319C23.4291 20.0567 18.895 23.3834 16.8677 23.3852Z" fill="#ECEBED" stroke="#ECEBED"/>
</svg>
