<svg width="36" height="36" viewBox="0 0 36 36" fill="#FFFFFF" xmlns="http://www.w3.org/2000/svg">
<path d="M30.8885 29.112L30.889 29.1125C31.0061 29.2287 31.0991 29.367 31.1626 29.5193C31.226 29.6716 31.2587 29.835 31.2587 30C31.2587 30.165 31.226 30.3284 31.1626 30.4807C31.0991 30.6331 31.0061 30.7713 30.889 30.8875L30.8875 30.889C30.7713 31.0061 30.6331 31.0991 30.4807 31.1626C30.3284 31.226 30.165 31.2587 30 31.2587C29.835 31.2587 29.6716 31.226 29.5193 31.1626C29.367 31.0991 29.2287 31.0061 29.1125 30.889L29.112 30.8885L24.027 25.7885L23.8703 25.6313L23.6956 25.7684C21.6434 27.3792 19.1092 28.2533 16.5003 28.25H16.5C14.1761 28.25 11.9043 27.5609 9.97206 26.2698C8.03978 24.9787 6.53375 23.1436 5.64442 20.9965C4.75509 18.8495 4.5224 16.487 4.97578 14.2077C5.42915 11.9284 6.54823 9.83477 8.1915 8.1915C9.83477 6.54823 11.9284 5.42915 14.2077 4.97578C16.487 4.5224 18.8495 4.75509 20.9965 5.64442C23.1436 6.53375 24.9787 8.03978 26.2698 9.97206C27.5609 11.9043 28.25 14.1761 28.25 16.5V16.5003C28.2533 19.1092 27.3792 21.6434 25.7684 23.6956L25.6313 23.8703L25.7885 24.027L30.8885 29.112ZM8.80891 11.361C7.79251 12.8821 7.25001 14.6705 7.25001 16.5C7.25001 18.9533 8.22456 21.306 9.95927 23.0407C11.694 24.7755 14.0468 25.75 16.5 25.75C18.3295 25.75 20.1179 25.2075 21.639 24.1911C23.1602 23.1747 24.3458 21.73 25.0459 20.0398C25.746 18.3496 25.9292 16.4897 25.5723 14.6954C25.2154 12.9011 24.3344 11.2529 23.0407 9.95927C21.7471 8.66563 20.0989 7.78466 18.3046 7.42774C16.5103 7.07083 14.6504 7.25401 12.9602 7.95412C11.27 8.65423 9.82531 9.83983 8.80891 11.361Z" fill="#FFFFFFF" stroke="#FFFFFF" stroke-width="0.5"/>
</svg>
